# This file uses centimeters as units for non-parametric coordinates.

mtllib TreeHouse.mtl
g default
v 2.500000 -2.500000 2.500000
v 0.787684 -0.787684 2.500000
v -0.787684 -0.787684 2.500000
v -2.500000 -2.500000 2.500000
v -0.787684 0.787684 2.500000
v -2.500000 2.500000 2.500000
v -0.787684 -0.787684 2.250000
v 0.787684 -0.787684 2.250000
v -0.787684 0.787684 2.250000
v 2.250000 -2.250000 2.250000
v 2.250000 2.250000 2.250000
v 2.250000 2.250000 -2.250000
v 2.250000 -2.250000 -2.250000
v -2.250000 2.250000 2.250000
v -2.250000 2.250000 -2.250000
v 2.500000 -2.500000 -2.500000
v 2.500000 2.500000 -2.500000
v 2.500000 2.500000 2.500000
v -2.500000 2.500000 -2.500000
v 0.787684 0.787684 2.500000
v 0.787684 0.787684 2.250000
v -2.250000 -2.250000 2.250000
v 0.787684 0.787684 -2.500000
v -0.787684 0.787684 -2.500000
v 0.787684 -0.787684 -2.500000
v -0.787684 0.787684 -2.250000
v 0.787684 0.787684 -2.250000
v 0.787684 -0.787684 -2.250000
v -2.250000 -2.250000 -2.250000
v -2.500000 -2.500000 -2.500000
v -0.787684 -0.787684 -2.500000
v -0.787684 -0.787684 -2.250000
vt 0.625000 0.000000
vt 0.539384 0.085616
vt 0.460616 0.085616
vt 0.375000 0.000000
vt 0.460616 0.164384
vt 0.375000 0.250000
vt 0.375000 0.932828
vt 0.375000 0.938495
vt 0.625000 0.938495
vt 0.625000 0.932828
vt 0.307828 0.250000
vt 0.313495 0.250000
vt 0.313495 0.000000
vt 0.307828 0.000000
vt 0.625000 0.000000
vt 0.625000 0.250000
vt 0.875000 0.250000
vt 0.875000 0.000000
vt 0.375000 0.250000
vt 0.375000 0.500000
vt 0.625000 0.500000
vt 0.875000 0.000000
vt 0.875000 0.250000
vt 0.625000 0.250000
vt 0.625000 0.500000
vt 0.375000 0.500000
vt 0.686505 0.000000
vt 0.686505 0.250000
vt 0.692172 0.250000
vt 0.692172 0.000000
vt 0.625000 0.311505
vt 0.375000 0.311505
vt 0.375000 0.317172
vt 0.625000 0.317172
vt 0.539384 0.164384
vt 0.375000 0.000000
vt 0.456240 0.081240
vt 0.543760 0.081240
vt 0.543760 0.168760
vt 0.456240 0.168760
vt 0.539384 0.585616
vt 0.460616 0.585616
vt 0.625000 0.750000
vt 0.539384 0.664384
vt 0.375000 0.419189
vt 0.375000 0.424857
vt 0.625000 0.424857
vt 0.625000 0.419189
vt 0.794190 0.250000
vt 0.799857 0.250000
vt 0.799857 0.000000
vt 0.794190 0.000000
vt 0.375000 0.750000
vt 0.375000 1.000000
vt 0.625000 1.000000
vt 0.625000 0.750000
vt 0.125000 0.000000
vt 0.125000 0.250000
vt 0.375000 0.750000
vt 0.625000 1.000000
vt 0.375000 1.000000
vt 0.125000 0.000000
vt 0.125000 0.250000
vt 0.200143 0.000000
vt 0.200143 0.250000
vt 0.205811 0.250000
vt 0.205811 0.000000
vt 0.625000 0.825143
vt 0.375000 0.825143
vt 0.375000 0.830810
vt 0.625000 0.830810
vt 0.460616 0.664384
vt 0.456240 0.668760
vt 0.456240 0.581240
vt 0.543760 0.581240
vt 0.543760 0.668760
vn 0.000000 0.000000 1.000000
vn 0.000000 0.000000 1.000000
vn 0.000000 0.000000 1.000000
vn 0.000000 0.000000 1.000000
vn 0.000000 0.000000 1.000000
vn 0.000000 0.000000 1.000000
vn 0.000000 1.000000 0.000000
vn 0.000000 1.000000 0.000000
vn 0.000000 1.000000 0.000000
vn 0.000000 1.000000 0.000000
vn 1.000000 -0.000000 0.000000
vn 1.000000 -0.000000 0.000000
vn 1.000000 -0.000000 0.000000
vn 1.000000 -0.000000 0.000000
vn -1.000000 0.000000 0.000000
vn -1.000000 0.000000 0.000000
vn -1.000000 0.000000 0.000000
vn -1.000000 0.000000 0.000000
vn 0.000000 -1.000000 0.000000
vn 0.000000 -1.000000 0.000000
vn 0.000000 -1.000000 0.000000
vn 0.000000 -1.000000 0.000000
vn 1.000000 0.000000 0.000000
vn 1.000000 0.000000 0.000000
vn 1.000000 0.000000 0.000000
vn 1.000000 0.000000 0.000000
vn 0.000000 1.000000 0.000000
vn 0.000000 1.000000 0.000000
vn 0.000000 1.000000 0.000000
vn 0.000000 1.000000 0.000000
vn -1.000000 0.000000 0.000000
vn -1.000000 0.000000 0.000000
vn -1.000000 0.000000 0.000000
vn -1.000000 0.000000 0.000000
vn 0.000000 -1.000000 0.000000
vn 0.000000 -1.000000 0.000000
vn 0.000000 -1.000000 0.000000
vn 0.000000 -1.000000 0.000000
vn 0.000000 0.000000 1.000000
vn 0.000000 0.000000 1.000000
vn 0.000000 0.000000 -1.000000
vn 0.000000 0.000000 -1.000000
vn 0.000000 0.000000 -1.000000
vn 0.000000 0.000000 -1.000000
vn 0.000000 0.000000 -1.000000
vn 0.000000 0.000000 -1.000000
vn 0.000000 0.000000 -1.000000
vn 0.000000 0.000000 -1.000000
vn 0.000000 0.000000 -1.000000
vn -0.000000 0.000000 -1.000000
vn -0.000000 0.000000 -1.000000
vn 0.000000 0.000000 -1.000000
vn -0.000000 0.000000 -1.000000
vn -0.000000 0.000000 -1.000000
vn 0.000000 -1.000000 0.000000
vn 0.000000 -1.000000 0.000000
vn 0.000000 -1.000000 0.000000
vn 0.000000 -1.000000 0.000000
vn -1.000000 0.000000 0.000000
vn -1.000000 0.000000 0.000000
vn -1.000000 0.000000 0.000000
vn -1.000000 0.000000 0.000000
vn 0.000000 1.000000 0.000000
vn 0.000000 1.000000 0.000000
vn 0.000000 1.000000 0.000000
vn 0.000000 1.000000 0.000000
vn 1.000000 0.000000 0.000000
vn 1.000000 0.000000 0.000000
vn 1.000000 0.000000 0.000000
vn 1.000000 0.000000 0.000000
vn 0.000000 -1.000000 0.000000
vn 0.000000 -1.000000 0.000000
vn 0.000000 -1.000000 0.000000
vn 0.000000 -1.000000 0.000000
vn -1.000000 0.000000 0.000000
vn -1.000000 0.000000 0.000000
vn -1.000000 0.000000 0.000000
vn -1.000000 0.000000 0.000000
vn 1.000000 0.000000 0.000000
vn 1.000000 0.000000 0.000000
vn 1.000000 0.000000 0.000000
vn 1.000000 0.000000 0.000000
vn 0.000000 1.000000 0.000000
vn 0.000000 1.000000 0.000000
vn 0.000000 1.000000 0.000000
vn 0.000000 1.000000 0.000000
vn 0.000000 0.000000 -1.000000
vn 0.000000 0.000000 -1.000000
vn 0.000000 0.000000 1.000000
vn 0.000000 0.000000 1.000000
vn 0.000000 0.000000 1.000000
vn 0.000000 0.000000 1.000000
vn 0.000000 0.000000 1.000000
vn 0.000000 0.000000 1.000000
vn 0.000000 0.000000 1.000000
vn 0.000000 0.000000 1.000000
s 1
g pCube5
usemtl initialShadingGroup
f 1/1/1 2/2/2 3/3/3 4/4/4
f 4/4/4 3/3/3 5/5/5 6/6/6
s off
f 7/7/7 3/8/8 2/9/9 8/10/10
f 9/11/11 5/12/12 3/13/13 7/14/14
f 10/15/15 11/16/16 12/17/17 13/18/18
f 14/19/19 15/20/20 12/21/21 11/16/22
f 1/1/23 16/22/24 17/23/25 18/24/26
f 6/6/27 18/24/28 17/25/29 19/26/30
f 2/27/31 20/28/32 21/29/33 8/30/34
f 20/31/35 5/32/36 9/33/37 21/34/38
s 1
f 20/35/39 2/2/2 1/1/1 18/24/40
f 6/6/6 5/5/5 20/35/39 18/24/40
s 2
f 8/38/41 10/15/42 22/36/43 7/37/44
f 9/40/45 14/19/46 11/16/47 21/39/48
s 3
f 19/26/49 17/25/50 23/41/51 24/42/52
f 17/25/50 16/43/53 25/44/54 23/41/51
s off
f 26/45/55 24/46/56 23/47/57 27/48/58
f 27/49/59 23/50/60 25/51/61 28/52/62
f 29/53/63 22/54/64 10/55/65 13/56/66
f 29/57/67 15/58/68 14/19/69 22/36/70
f 30/59/71 16/43/72 1/60/73 4/61/74
f 30/62/75 4/4/76 6/6/77 19/63/78
f 31/64/79 24/65/80 26/66/81 32/67/82
f 25/68/83 31/69/84 32/70/85 28/71/86
s 3
f 19/26/49 24/42/52 31/72/87 30/59/88
f 25/44/54 16/43/53 30/59/88 31/72/87
s 4
f 15/20/89 29/53/90 32/73/91 26/74/92
f 13/56/93 28/76/94 32/73/91 29/53/90
s 2
f 22/36/43 14/19/46 9/40/45 7/37/44
f 11/16/47 10/15/42 8/38/41 21/39/48
s 4
f 15/20/89 26/74/92 27/75/95 12/21/96
f 27/75/95 28/76/94 13/56/93 12/21/96
